<svg width="410" height="256" viewBox="0 0 410 256" fill="none" xmlns="http://www.w3.org/2000/svg">
<path d="M407.381 75.4077L407.312 75.4279L407.381 75.4077H407.381ZM37.6068 254.283C37.5759 254.284 37.545 254.285 37.5141 254.286H37.5133C37.5441 254.285 37.575 254.284 37.606 254.283H37.6068ZM39.8527 0C38.688 0 37.0039 0.82972 34.8005 2.48917L30.5709 5.88647C20.8029 14.443 15.2968 19.1519 14.0524 20.0132C10.4741 22.8107 7.92875 24.3886 6.41641 24.7472C6.0332 24.893 5.67812 24.9659 5.35118 24.9659C4.42474 24.9659 3.7242 24.3806 3.24956 23.2102C2.75535 22.1129 2.39643 20.3334 2.1728 17.8717L1.83032 12.4972C1.82167 12.0831 1.93123 11.6967 2.159 11.3381C1.85689 11.1511 1.52837 11.0576 1.17343 11.0576C0.953589 11.0576 0.723611 11.0934 0.483496 11.1652C0.81478 11.6597 0.972593 12.0229 0.956938 12.2547C0.215707 16.0992 -0.0949131 19.1841 0.0250763 21.5094C0.0819616 23.3229 0.493743 24.8708 1.26042 26.1531C2.38647 27.8126 3.97294 28.6423 6.01982 28.6423C7.41524 28.6423 9.02465 28.2567 10.848 27.4854C14.168 26.2977 21.8029 21.3545 33.7529 12.6557H33.7537C25.8523 28.9627 26.1389 42.3522 34.6134 52.8242C34.9194 53.1787 35.2358 53.5304 35.5628 53.8793H35.5619C38.8173 58.7508 42.5427 63.0188 46.7384 66.6835H46.7374C49.7174 70.0005 53.3448 73.8721 57.6193 78.298C57.8164 78.4964 58.0122 78.6927 58.2067 78.8872H58.2057C54.3605 84.6412 51.0274 91.4483 48.2064 99.3083C46.8365 104.398 46.4016 110.163 46.9019 116.603C47.0088 121.75 48.6939 130.014 51.9573 141.397C52.3544 143.969 52.324 146.863 51.8662 150.081C51.0246 155.409 49.5383 159.733 47.4075 163.052C45.9874 165.705 42.0737 169.554 35.6662 174.601C34.802 175.545 34.1554 176.857 33.7263 178.535C33.0552 179.562 33.1821 185.776 34.1069 197.179L33.0101 205.292C29.6497 220.269 25.7189 231.219 21.2179 238.141C21.1284 238.69 22.2604 239.086 24.614 239.329C24.714 244.805 24.3007 248.43 23.3741 250.204L26.2018 253.611C27.1447 254.734 30.1533 255.422 35.2273 255.676L43.4523 255.852C45.7824 255.239 46.9517 254.711 46.9603 254.268C48.1308 254.118 46.3854 251.292 41.7242 245.789C41.1562 244.587 40.9041 243.378 40.9679 242.162C42.1388 228.258 44.6796 216.204 48.5902 206.001C53.6512 197.222 57.2613 191.943 59.4204 190.162H59.4193C59.4147 190.163 59.4104 190.163 59.4064 190.163C58.7821 190.163 65.7379 184.459 80.2739 173.05H80.2752C77.8241 177.099 76.737 180.663 77.0142 183.741C81.268 193.537 83.9656 211.952 85.1069 238.985C85.2418 239.32 85.5718 239.527 86.0972 239.607C86.9283 239.31 87.6009 239.162 88.115 239.162C88.6941 239.162 89.0719 239.35 89.2484 239.726C92.3508 243.567 93.3873 246.033 92.3579 247.125C92.3575 247.362 92.8057 247.48 93.7025 247.48C93.9054 247.48 94.1313 247.474 94.3801 247.462H94.3815C93.9705 248.475 94.511 249.253 96.0031 249.797C98.6853 250.472 101.287 250.809 103.808 250.809C107.607 250.809 111.223 250.043 114.656 248.509C106.969 243.477 102.166 237.763 100.247 231.364C99.2276 229.624 98.8866 224.15 99.2241 214.944L97.3153 209.364C97.1822 208.154 97.8171 205.557 99.2202 201.574C101.783 194.158 104.663 189.174 107.86 186.622C114.407 181.696 120.504 176.287 126.151 170.396C129.827 167.511 135.289 165.422 142.538 164.132C143.854 163.524 145.216 161.639 146.625 158.477C164.117 158.959 177.934 159.994 188.076 161.583C190.792 162.031 192.876 162.532 194.329 163.085C195.982 163.563 197.494 164.555 198.865 166.062C201.931 166.462 203.614 167.028 203.915 167.762C204.983 168.698 206.062 170.527 207.154 173.251C211.227 186.527 215.841 199.001 220.997 210.673C222.176 214.12 223.126 222.748 223.847 236.557C224.034 236.482 224.222 236.445 224.413 236.445C226.457 236.445 228.707 240.737 231.162 249.321C237.695 251.294 242.115 252.486 244.421 252.896C245.096 253.065 245.743 253.149 246.364 253.149C247.176 253.149 247.941 253.005 248.661 252.717C252.225 251.053 253.642 249.732 252.913 248.753L242.467 239.254C237.442 227.671 234.735 220.4 234.344 217.442C233.313 213.65 233.701 208.214 235.508 201.133C233.924 199.699 233.122 191.08 233.104 175.276C235.783 174.821 237.214 174.145 237.396 173.25C253.355 187.867 260.577 195.512 259.062 196.184C259.968 197.311 259.117 202.746 256.507 212.491C254.264 215.659 253.441 217.526 254.039 218.093C253.983 218.08 253.924 218.074 253.862 218.074C252.68 218.074 250.533 220.408 247.422 225.076L248.86 237.796C248.858 238.204 249.101 238.443 249.59 238.513C249.37 237.838 255.288 232.183 267.345 221.547C269.567 219.248 270.823 217.115 271.112 215.147C269.138 205.834 269.784 196.347 273.052 186.687C272.816 185.177 272.375 183.659 271.728 182.132C267.54 174.995 264.82 168.847 263.566 163.688H263.569C266.478 164.069 269.093 164.26 271.415 164.26C274.444 164.26 276.974 163.935 279.006 163.286C283.262 162.223 288.876 158.172 295.847 151.132L300.746 151.766L302.89 151.499L304.033 153.601C303.474 157.966 303.595 160.867 304.396 162.304C307.093 167.685 309.182 170.389 310.662 170.415C311.236 174.267 312.135 176.463 313.357 177.005C314.572 177.774 315.609 178.159 316.47 178.159C316.509 178.159 316.547 178.158 316.585 178.157C316.643 178.159 316.7 178.16 316.757 178.16C318.116 178.16 319.473 177.592 320.829 176.458C325.129 177.477 328.606 177.987 331.259 177.987C333.37 177.987 334.96 177.664 336.028 177.019C336.906 176.623 337.846 175.591 338.848 173.926C342.462 165.438 345.564 159.121 348.154 154.974C349.653 152.427 352.585 148.432 356.948 142.989C361.318 137.534 364.341 134.168 366.017 132.892C367.16 131.542 369.443 130.768 372.864 130.572C373.577 130.298 374.207 129.65 374.756 128.627C375.906 121.039 374.223 114.666 369.706 109.509C370.166 109.063 379.598 107.055 398.002 103.486C400.75 102.769 403.335 100.78 405.759 97.5192C405.772 96.8229 405.59 96.4748 405.214 96.4748C405.113 96.4748 404.997 96.5001 404.867 96.5509C401.029 97.8754 397.253 98.5377 393.537 98.5377C392.721 98.5377 391.908 98.5057 391.097 98.4418C385.019 98.0609 379.003 97.135 373.049 95.6642C376.197 93.275 378.971 91.5034 381.369 90.3493C392.014 86.9701 398.756 84.2794 401.595 82.2773C405.866 79.8702 408.518 77.0353 409.551 73.7727L409.229 73.5203L399.557 76.0195C380.088 79.0447 369.213 81.0904 366.933 82.1568C361.898 83.5421 357.223 86.4399 352.907 90.8501C332.541 65.6671 318.018 51.1485 309.337 47.2941L294.184 39.0672L267.509 28.599C257.748 25.2112 249.234 23.4236 241.966 23.2362C241.045 23.2106 240.134 23.1978 239.232 23.1978C231.262 23.1978 224.042 24.1957 217.571 26.1914L198.363 34.29L175.626 41.5511L161.671 48.433C158.666 49.5571 155.481 50.4902 152.119 51.2323C128.061 55.8473 107.39 58.1548 90.1028 58.1548C88.652 58.1548 87.225 58.1386 85.8218 58.106C83.5368 58.3348 81.0727 59.0877 78.4295 60.3647C75.1155 62.0164 71.9982 64.0726 69.0776 66.5332C62.5271 63.5508 57.4776 60.8687 53.9289 58.4868C47.6381 54.4497 43.2324 50.4195 40.7117 46.3965C38.438 43.0018 37.613 38.6791 38.2367 33.4285C38.9987 28.3694 39.6587 24.9146 40.2167 23.0641C40.6615 21.0877 42.2401 16.2735 44.9524 8.62167C45.4536 6.87438 45.6608 5.89405 45.5743 5.68069C44.7912 2.29937 42.9464 0.406688 40.04 0.00265503L39.9101 0.000671387C39.8911 0.00022472 39.872 0 39.8527 0Z" fill="black"/>
</svg>
