<svg width="207" height="201" viewBox="0 0 207 201" fill="none" xmlns="http://www.w3.org/2000/svg">
<path d="M114.54 53.7906C106.116 53.7906 100.488 57.8146 100.383 58.0026C97.8573 59.1293 95.3026 60.192 92.7173 61.1746C91.884 61.4906 91.0066 61.804 90.1226 61.696C87.672 61.3946 86.5493 58.664 86.248 56.58C85.4493 51.0693 84.9027 45.5146 83.7987 40.056C83.552 38.836 83.2693 37.5986 82.6293 36.5306C82.48 36.2813 80.8467 34.1666 80.64 34.22C80.6427 34.2186 105.555 27.8413 105.555 27.8413C105.125 29.22 104.824 30.644 104.661 32.0853C103.771 39.992 105.389 48.04 105.901 50.196C108.355 49.8186 109.432 49.5493 111.723 49.172C111.819 47.1266 111.661 44.2186 111.66 44.1933C111.652 44.0413 113.288 43.564 113.42 43.512C113.673 44.9066 114 46.3013 114.609 47.5813C115.201 48.828 116.043 49.5653 116.979 50.516C117.703 51.2506 117.787 53.7906 114.54 53.7906V53.7906ZM201.247 184.958C199.299 183.391 196.364 180.316 194.737 178.415C190.377 173.315 176.701 141.185 172.528 134.725C171.512 133.152 170.531 131.547 169.603 129.912C171.736 128.8 173.704 127.424 175.407 125.665C174.131 124.364 173.147 122.823 172.255 121.225C174.437 121.743 176.771 121.621 178.739 120.583C180.503 119.652 181.84 118.083 182.995 116.456C185.7 112.649 187.661 108.315 188.735 103.768C193.171 84.98 191.181 65.4346 182.716 48.084C180.731 44.0173 177.913 39.736 173.487 38.792C170.64 38.184 167.613 39.1506 165.284 40.896C162.956 42.6426 161.251 45.1 159.892 47.6733C157.395 52.4093 155.941 57.692 155.667 63.0373C152.888 60.8466 150.543 57.5173 147.676 55.44C145.8 54.0813 143.592 53.2866 141.339 52.82C140.188 52.5813 139.023 52.4253 137.853 52.3106C137.239 52.2506 136.223 52.256 134.907 52.2266C134.328 52.2146 133.932 51.8466 133.716 51.3213C133.256 50.2 134.649 44.6986 134.508 39.0013C134.08 21.9146 127.116 24.0653 127.219 22.2946L175.349 9.97328C175.636 10.036 175.915 10.104 176.173 10.1773C178.253 10.764 179.675 11.688 179.675 11.688C179.675 11.688 203.909 0.0586336 203.908 0.0559669L177.139 2.48263C177.136 2.48663 176.389 4.00662 174.905 5.57462C174.512 5.98795 174.04 6.42396 173.552 6.84529L127.809 18.556C128.247 16.8973 128.92 15.3093 129.856 13.8626C125.745 13.6733 123.527 13.004 117.636 14.8813C113.075 16.3346 109.509 19.668 107.255 23.8186C106.981 24.3213 103.813 24.6986 103.287 24.8346C100.277 25.604 97.268 26.3746 94.2586 27.1453C90.432 28.1253 86.6053 29.104 82.7787 30.084C81.5147 30.408 80.2506 30.732 78.988 31.0546C77.096 31.5386 75.7253 30.0533 73.6813 30.2213C72.7227 30.3 71.756 30.6666 71.0307 31.3066C70.3547 31.904 70.1693 33.0893 69.4693 33.5613C68.8493 33.9786 67.5626 33.98 66.788 34.1786C65.0813 34.6146 63.3747 35.052 61.668 35.4893C53.7013 37.528 45.7333 39.568 37.7667 41.608C29.544 43.7133 21.32 45.8186 13.0973 47.9226C9.31066 48.8933 5.52266 49.8626 1.73599 50.832C0.805328 51.0693 0.245341 52.016 0.482674 52.9466C0.721341 53.876 1.66799 54.4373 2.59732 54.1986C6.25866 53.2613 9.91867 52.324 13.58 51.3866C21.6187 49.3293 29.6573 47.2706 37.696 45.2133C45.7107 43.1613 53.7253 41.1093 61.74 39.0573C63.556 38.5933 65.372 38.128 67.188 37.6626C69.068 37.1813 71.2387 36.2346 72.9813 37.552C73.6427 38.0506 74.1693 38.7066 74.7973 39.248C75.788 40.1053 77.112 39.956 77.6573 41.272C77.896 41.8453 77.864 42.4906 77.828 43.1106C77.6027 46.9653 77.3773 50.82 77.1533 54.6746C77.076 55.9813 77.0013 57.3093 77.288 58.5866C77.564 59.824 78.1693 60.9653 78.4747 62.196C78.8787 63.8226 78.7547 65.5773 79.396 67.1253C79.9333 68.4213 80.9667 69.456 82.1067 70.2733C87.388 74.0626 94.528 73.5253 100.973 72.6773C102.947 72.4186 105.208 72.228 106.677 73.572C107.547 74.3693 107.939 75.5426 108.489 76.5866C110.044 79.528 112.924 81.4826 115.291 83.8226C117.173 85.6853 118.745 87.816 120.195 90.0373C120.651 92.0386 120.871 95.004 120.908 98.1893C120.285 98.9986 119.495 99.7146 118.825 100.491C117.464 102.069 116.187 103.719 114.979 105.417C112.572 108.801 110.451 112.38 108.489 116.036C106.24 120.228 104.201 124.527 102.169 128.825C104.455 129.707 106.833 130.344 109.253 130.724C109.073 131.695 103.741 140.015 102.624 145.157C96.716 172.334 95.7907 183.067 92.3653 187.977C90.5587 190.57 84.9986 195.958 84.5253 197.201C83.3013 200.418 90.0547 200.334 92.4707 200.334C95.7613 200.334 99.3027 195.372 100.435 193.392C100.965 192.463 101.507 191.504 101.651 190.444C101.819 189.201 101.425 187.957 101.331 186.706C101.12 183.893 104.849 176.994 106.228 174.534C113.316 161.887 113.705 152.941 114.311 149.697C114.912 146.463 119.993 142.777 122.396 140.641C123.639 139.536 124.749 138.488 125.768 137.48C127.729 137.613 129.696 137.644 131.66 137.572C131.7 136.675 131.739 135.777 131.777 134.88C138.496 135.289 142.524 135.281 149.036 133.575C149.325 134.148 152.696 139.761 157.099 142.195C163.472 145.716 162.535 151.271 168.168 158.965C175.044 168.356 187.139 179.118 187.725 183.344C187.845 184.206 187.895 185.097 188.255 185.891C188.631 186.722 194.127 193.356 197.101 193.356C199.151 193.356 206.736 193.834 206.697 191.332C206.66 188.83 205.104 188.061 201.247 184.958" fill="#201F1E"/>
</svg>
