<svg width="207" height="201" viewBox="0 0 207 201" fill="none" xmlns="http://www.w3.org/2000/svg">
<path d="M92.5856 53.7906C101.01 53.7906 106.638 57.8146 106.743 58.0026C109.268 59.1293 111.823 60.192 114.408 61.1746C115.242 61.4906 116.119 61.804 117.003 61.696C119.454 61.3946 120.576 58.664 120.878 56.58C121.676 51.0693 122.223 45.5146 123.327 40.056C123.574 38.836 123.856 37.5986 124.496 36.5306C124.646 36.2813 126.279 34.1666 126.486 34.22C126.483 34.2186 101.571 27.8413 101.571 27.8413C102 29.22 102.302 30.644 102.464 32.0853C103.355 39.992 101.736 48.0399 101.224 50.196C98.771 49.8186 97.6937 49.5493 95.403 49.172C95.307 47.1266 95.4643 44.2186 95.4657 44.1933C95.4737 44.0413 93.8377 43.5639 93.7057 43.5119C93.4523 44.9066 93.1256 46.3013 92.5163 47.5813C91.9243 48.828 91.083 49.5653 90.147 50.516C89.423 51.2506 89.339 53.7906 92.5856 53.7906ZM5.87898 184.958C7.82698 183.391 10.7617 180.316 12.3884 178.415C16.7484 173.315 30.4243 141.185 34.5977 134.725C35.6137 133.152 36.595 131.547 37.523 129.912C35.3897 128.8 33.4217 127.424 31.719 125.665C32.995 124.364 33.979 122.823 34.871 121.225C32.6883 121.743 30.355 121.621 28.387 120.583C26.623 119.652 25.2857 118.083 24.131 116.456C21.4257 112.649 19.4644 108.315 18.391 103.768C13.955 84.98 15.9443 65.4346 24.4097 48.084C26.395 44.0173 29.2123 39.736 33.639 38.792C36.4857 38.184 39.5123 39.1506 41.8417 40.896C44.1697 42.6426 45.875 45.1 47.2337 47.6733C49.731 52.4093 51.1843 57.692 51.459 63.0373C54.2377 60.8466 56.583 57.5173 59.4497 55.44C61.3257 54.0813 63.5337 53.2866 65.787 52.82C66.9377 52.5813 68.103 52.4253 69.2723 52.3106C69.887 52.2506 70.903 52.256 72.219 52.2266C72.7977 52.2146 73.1936 51.8466 73.4096 51.3213C73.8696 50.2 72.4763 44.6986 72.6176 39.0013C73.0457 21.9146 80.0097 24.0653 79.907 22.2946L31.7763 9.97328C31.4897 10.0359 31.211 10.104 30.9523 10.1773C28.8723 10.764 27.451 11.688 27.451 11.688C27.451 11.688 3.21632 0.0586395 3.21767 0.0559692L29.987 2.48262C29.9897 2.48663 30.7363 4.00662 32.2203 5.57462C32.6137 5.98795 33.0857 6.42395 33.5737 6.84529L79.3163 18.556C78.879 16.8973 78.2057 15.3093 77.2697 13.8626C81.3803 13.6733 83.599 13.004 89.4897 14.8813C94.051 16.3346 97.6163 19.668 99.871 23.8186C100.144 24.3213 103.312 24.6986 103.839 24.8346C106.848 25.604 109.858 26.3746 112.867 27.1453C116.694 28.1253 120.52 29.104 124.347 30.084C125.611 30.408 126.875 30.732 128.138 31.0546C130.03 31.5386 131.4 30.0533 133.444 30.2213C134.403 30.3 135.37 30.6666 136.095 31.3066C136.771 31.904 136.956 33.0893 137.656 33.5613C138.276 33.9786 139.563 33.9799 140.338 34.1786C142.044 34.6146 143.751 35.052 145.458 35.4893C153.424 37.528 161.392 39.568 169.359 41.608C177.582 43.7133 185.806 45.8186 194.028 47.9226C197.815 48.8933 201.603 49.8626 205.39 50.832C206.32 51.0693 206.88 52.016 206.643 52.9466C206.404 53.876 205.458 54.4373 204.528 54.1986C200.867 53.2613 197.207 52.324 193.546 51.3866C185.507 49.3293 177.468 47.2706 169.43 45.2133C161.415 43.1613 153.4 41.1093 145.386 39.0573C143.57 38.5933 141.754 38.128 139.938 37.6626C138.058 37.1813 135.887 36.2346 134.144 37.552C133.483 38.0506 132.956 38.7066 132.328 39.248C131.338 40.1053 130.014 39.956 129.468 41.272C129.23 41.8453 129.262 42.4906 129.298 43.1106C129.523 46.9653 129.748 50.82 129.972 54.6746C130.05 55.9813 130.124 57.3093 129.838 58.5866C129.562 59.824 128.956 60.9653 128.651 62.196C128.247 63.8226 128.371 65.5773 127.73 67.1253C127.192 68.4213 126.159 69.456 125.019 70.2733C119.738 74.0626 112.598 73.5253 106.152 72.6773C104.179 72.4186 101.918 72.228 100.448 73.572C99.579 74.3693 99.187 75.5426 98.6363 76.5866C97.0817 79.528 94.2017 81.4826 91.835 83.8226C89.9523 85.6853 88.3803 87.816 86.931 90.0373C86.475 92.0386 86.255 95.004 86.2176 98.1893C86.8403 98.9986 87.631 99.7146 88.3003 100.491C89.6617 102.069 90.939 103.719 92.147 105.417C94.5536 108.801 96.675 112.38 98.6363 116.036C100.886 120.228 102.924 124.527 104.956 128.825C102.671 129.707 100.292 130.344 97.8723 130.724C98.0523 131.695 103.384 140.015 104.502 145.157C110.41 172.334 111.335 183.067 114.76 187.977C116.567 190.57 122.127 195.958 122.6 197.201C123.824 200.418 117.071 200.334 114.655 200.334C111.364 200.334 107.823 195.372 106.691 193.392C106.16 192.463 105.619 191.504 105.475 190.444C105.307 189.201 105.7 187.957 105.795 186.706C106.006 183.893 102.276 176.994 100.898 174.534C93.8097 161.887 93.4203 152.941 92.815 149.697C92.2136 146.463 87.1323 142.777 84.7297 140.641C83.487 139.536 82.3763 138.488 81.3577 137.48C79.3963 137.613 77.4297 137.644 75.4657 137.572C75.4257 136.675 75.387 135.777 75.3483 134.88C68.6296 135.289 64.6017 135.281 58.0897 133.575C57.8003 134.148 54.4297 139.761 50.027 142.195C43.6537 145.716 44.591 151.271 38.9577 158.965C32.0817 168.356 19.987 179.118 19.4003 183.344C19.2803 184.206 19.231 185.097 18.871 185.891C18.495 186.722 12.999 193.356 10.0244 193.356C7.97504 193.356 0.389664 193.834 0.428329 191.332C0.465668 188.83 2.02165 188.061 5.87898 184.958Z" fill="#201F1E"/>
</svg>
